<mxfile host="app.diagrams.net" modified="2023-06-23T07:17:58.142Z" agent="5.0 (Macintosh; Intel Mac OS X 10_15_7) AppleWebKit/537.36 (KHTML, like Gecko) Chrome/114.0.0.0 Safari/537.36" etag="-RB5x0Q9YNMf68SMH7RM" version="20.5.1" type="github">
  <diagram id="6a731a19-8d31-9384-78a2-239565b7b9f0" name="Page-1">
    <mxGraphModel dx="1505" dy="1672" grid="1" gridSize="10" guides="1" tooltips="1" connect="1" arrows="1" fold="1" page="1" pageScale="1" pageWidth="1169" pageHeight="827" background="none" math="0" shadow="0">
      <root>
        <mxCell id="0" />
        <mxCell id="1" parent="0" />
        <mxCell id="PqzKv4pI-6px_iKNPWzs-1544" style="edgeStyle=orthogonalEdgeStyle;rounded=0;orthogonalLoop=1;jettySize=auto;html=1;startArrow=none;endArrow=none;endFill=0;" edge="1" parent="1" source="PqzKv4pI-6px_iKNPWzs-1545" target="PqzKv4pI-6px_iKNPWzs-1543">
          <mxGeometry relative="1" as="geometry" />
        </mxCell>
        <mxCell id="PqzKv4pI-6px_iKNPWzs-1550" style="edgeStyle=orthogonalEdgeStyle;rounded=0;orthogonalLoop=1;jettySize=auto;html=1;startArrow=none;endArrow=none;endFill=0;" edge="1" parent="1" source="PqzKv4pI-6px_iKNPWzs-1551" target="PqzKv4pI-6px_iKNPWzs-1549">
          <mxGeometry relative="1" as="geometry" />
        </mxCell>
        <mxCell id="PqzKv4pI-6px_iKNPWzs-1542" value="Person" style="rounded=1;whiteSpace=wrap;html=1;fillColor=#e1d5e7;strokeColor=#9673a6;" vertex="1" parent="1">
          <mxGeometry x="510" y="160" width="120" height="60" as="geometry" />
        </mxCell>
        <mxCell id="PqzKv4pI-6px_iKNPWzs-1543" value="Dog" style="rounded=1;whiteSpace=wrap;html=1;fillColor=#f8cecc;strokeColor=#b85450;" vertex="1" parent="1">
          <mxGeometry x="840" y="160" width="120" height="60" as="geometry" />
        </mxCell>
        <mxCell id="PqzKv4pI-6px_iKNPWzs-1545" value="" style="rhombus;whiteSpace=wrap;html=1;" vertex="1" parent="1">
          <mxGeometry x="700" y="165" width="50" height="50" as="geometry" />
        </mxCell>
        <mxCell id="PqzKv4pI-6px_iKNPWzs-1546" value="" style="edgeStyle=orthogonalEdgeStyle;rounded=0;orthogonalLoop=1;jettySize=auto;html=1;endArrow=none;" edge="1" parent="1" source="PqzKv4pI-6px_iKNPWzs-1542" target="PqzKv4pI-6px_iKNPWzs-1545">
          <mxGeometry relative="1" as="geometry">
            <mxPoint x="630" y="190" as="sourcePoint" />
            <mxPoint x="840" y="190" as="targetPoint" />
          </mxGeometry>
        </mxCell>
        <mxCell id="PqzKv4pI-6px_iKNPWzs-1547" value="M" style="text;html=1;align=center;verticalAlign=middle;resizable=0;points=[];autosize=1;strokeColor=none;fillColor=none;" vertex="1" parent="1">
          <mxGeometry x="665" y="165" width="30" height="30" as="geometry" />
        </mxCell>
        <mxCell id="PqzKv4pI-6px_iKNPWzs-1548" value="M" style="text;html=1;align=center;verticalAlign=middle;resizable=0;points=[];autosize=1;strokeColor=none;fillColor=none;" vertex="1" parent="1">
          <mxGeometry x="750" y="165" width="30" height="30" as="geometry" />
        </mxCell>
        <mxCell id="PqzKv4pI-6px_iKNPWzs-1549" value="Kennel" style="rounded=1;whiteSpace=wrap;html=1;fillColor=#d5e8d4;strokeColor=#82b366;" vertex="1" parent="1">
          <mxGeometry x="510" y="440" width="120" height="60" as="geometry" />
        </mxCell>
        <mxCell id="PqzKv4pI-6px_iKNPWzs-1551" value="" style="rhombus;whiteSpace=wrap;html=1;" vertex="1" parent="1">
          <mxGeometry x="545" y="290" width="50" height="50" as="geometry" />
        </mxCell>
        <mxCell id="PqzKv4pI-6px_iKNPWzs-1552" value="" style="edgeStyle=orthogonalEdgeStyle;rounded=0;orthogonalLoop=1;jettySize=auto;html=1;endArrow=none;" edge="1" parent="1" source="PqzKv4pI-6px_iKNPWzs-1542" target="PqzKv4pI-6px_iKNPWzs-1551">
          <mxGeometry relative="1" as="geometry">
            <mxPoint x="570" y="220" as="sourcePoint" />
            <mxPoint x="570" y="440" as="targetPoint" />
          </mxGeometry>
        </mxCell>
        <mxCell id="PqzKv4pI-6px_iKNPWzs-1553" value="1" style="text;html=1;align=center;verticalAlign=middle;resizable=0;points=[];autosize=1;strokeColor=none;fillColor=none;" vertex="1" parent="1">
          <mxGeometry x="565" y="265" width="30" height="30" as="geometry" />
        </mxCell>
        <mxCell id="PqzKv4pI-6px_iKNPWzs-1554" value="M" style="text;html=1;align=center;verticalAlign=middle;resizable=0;points=[];autosize=1;strokeColor=none;fillColor=none;" vertex="1" parent="1">
          <mxGeometry x="565" y="335" width="30" height="30" as="geometry" />
        </mxCell>
        <mxCell id="PqzKv4pI-6px_iKNPWzs-1556" style="edgeStyle=orthogonalEdgeStyle;rounded=0;orthogonalLoop=1;jettySize=auto;html=1;entryX=0.5;entryY=1;entryDx=0;entryDy=0;endArrow=none;endFill=0;" edge="1" parent="1" source="PqzKv4pI-6px_iKNPWzs-1555" target="PqzKv4pI-6px_iKNPWzs-1543">
          <mxGeometry relative="1" as="geometry" />
        </mxCell>
        <mxCell id="PqzKv4pI-6px_iKNPWzs-1555" value="Title" style="rounded=1;whiteSpace=wrap;html=1;fillColor=#ffe6cc;strokeColor=#d79b00;" vertex="1" parent="1">
          <mxGeometry x="840" y="320" width="120" height="60" as="geometry" />
        </mxCell>
        <mxCell id="PqzKv4pI-6px_iKNPWzs-1558" value="" style="rhombus;whiteSpace=wrap;html=1;" vertex="1" parent="1">
          <mxGeometry x="875" y="240" width="50" height="50" as="geometry" />
        </mxCell>
        <mxCell id="PqzKv4pI-6px_iKNPWzs-1559" value="M" style="text;html=1;align=center;verticalAlign=middle;resizable=0;points=[];autosize=1;strokeColor=none;fillColor=none;" vertex="1" parent="1">
          <mxGeometry x="895" y="220" width="30" height="30" as="geometry" />
        </mxCell>
        <mxCell id="PqzKv4pI-6px_iKNPWzs-1560" value="M" style="text;html=1;align=center;verticalAlign=middle;resizable=0;points=[];autosize=1;strokeColor=none;fillColor=none;" vertex="1" parent="1">
          <mxGeometry x="895" y="280" width="30" height="30" as="geometry" />
        </mxCell>
        <mxCell id="PqzKv4pI-6px_iKNPWzs-1564" style="edgeStyle=orthogonalEdgeStyle;rounded=0;orthogonalLoop=1;jettySize=auto;html=1;exitX=0.5;exitY=1;exitDx=0;exitDy=0;endArrow=none;endFill=0;startArrow=none;" edge="1" parent="1" source="PqzKv4pI-6px_iKNPWzs-1566" target="PqzKv4pI-6px_iKNPWzs-1543">
          <mxGeometry relative="1" as="geometry">
            <Array as="points">
              <mxPoint x="1080" y="190" />
            </Array>
          </mxGeometry>
        </mxCell>
        <mxCell id="PqzKv4pI-6px_iKNPWzs-1561" value="Dam" style="rounded=1;whiteSpace=wrap;html=1;fillColor=#f8cecc;strokeColor=#b85450;" vertex="1" parent="1">
          <mxGeometry x="1020" y="-70" width="120" height="60" as="geometry" />
        </mxCell>
        <mxCell id="PqzKv4pI-6px_iKNPWzs-1563" style="edgeStyle=orthogonalEdgeStyle;rounded=0;orthogonalLoop=1;jettySize=auto;html=1;exitX=0.5;exitY=1;exitDx=0;exitDy=0;endArrow=none;endFill=0;startArrow=none;" edge="1" parent="1" source="PqzKv4pI-6px_iKNPWzs-1567" target="PqzKv4pI-6px_iKNPWzs-1543">
          <mxGeometry relative="1" as="geometry" />
        </mxCell>
        <mxCell id="PqzKv4pI-6px_iKNPWzs-1562" value="Sire" style="rounded=1;whiteSpace=wrap;html=1;fillColor=#f8cecc;strokeColor=#b85450;" vertex="1" parent="1">
          <mxGeometry x="840" y="-70" width="120" height="60" as="geometry" />
        </mxCell>
        <mxCell id="PqzKv4pI-6px_iKNPWzs-1569" style="edgeStyle=orthogonalEdgeStyle;rounded=0;orthogonalLoop=1;jettySize=auto;html=1;exitX=0.5;exitY=0;exitDx=0;exitDy=0;entryX=0.5;entryY=1;entryDx=0;entryDy=0;endArrow=none;endFill=0;" edge="1" parent="1" source="PqzKv4pI-6px_iKNPWzs-1566" target="PqzKv4pI-6px_iKNPWzs-1561">
          <mxGeometry relative="1" as="geometry" />
        </mxCell>
        <mxCell id="PqzKv4pI-6px_iKNPWzs-1566" value="" style="rhombus;whiteSpace=wrap;html=1;" vertex="1" parent="1">
          <mxGeometry x="1055" y="50" width="50" height="50" as="geometry" />
        </mxCell>
        <mxCell id="PqzKv4pI-6px_iKNPWzs-1567" value="" style="rhombus;whiteSpace=wrap;html=1;" vertex="1" parent="1">
          <mxGeometry x="875" y="50" width="50" height="50" as="geometry" />
        </mxCell>
        <mxCell id="PqzKv4pI-6px_iKNPWzs-1570" value="" style="edgeStyle=orthogonalEdgeStyle;rounded=0;orthogonalLoop=1;jettySize=auto;html=1;exitX=0.5;exitY=1;exitDx=0;exitDy=0;endArrow=none;endFill=0;" edge="1" parent="1" source="PqzKv4pI-6px_iKNPWzs-1562" target="PqzKv4pI-6px_iKNPWzs-1567">
          <mxGeometry relative="1" as="geometry">
            <mxPoint x="900" y="-10" as="sourcePoint" />
            <mxPoint x="900" y="160" as="targetPoint" />
          </mxGeometry>
        </mxCell>
        <mxCell id="PqzKv4pI-6px_iKNPWzs-1571" value="M" style="text;html=1;align=center;verticalAlign=middle;resizable=0;points=[];autosize=1;strokeColor=none;fillColor=none;" vertex="1" parent="1">
          <mxGeometry x="895" y="95" width="30" height="30" as="geometry" />
        </mxCell>
        <mxCell id="PqzKv4pI-6px_iKNPWzs-1572" value="1" style="text;html=1;align=center;verticalAlign=middle;resizable=0;points=[];autosize=1;strokeColor=none;fillColor=none;" vertex="1" parent="1">
          <mxGeometry x="895" y="25" width="30" height="30" as="geometry" />
        </mxCell>
        <mxCell id="PqzKv4pI-6px_iKNPWzs-1573" value="M" style="text;html=1;align=center;verticalAlign=middle;resizable=0;points=[];autosize=1;strokeColor=none;fillColor=none;" vertex="1" parent="1">
          <mxGeometry x="1075" y="90" width="30" height="30" as="geometry" />
        </mxCell>
        <mxCell id="PqzKv4pI-6px_iKNPWzs-1574" value="1" style="text;html=1;align=center;verticalAlign=middle;resizable=0;points=[];autosize=1;strokeColor=none;fillColor=none;" vertex="1" parent="1">
          <mxGeometry x="1075" y="35" width="30" height="30" as="geometry" />
        </mxCell>
        <mxCell id="PqzKv4pI-6px_iKNPWzs-1578" style="edgeStyle=orthogonalEdgeStyle;rounded=0;orthogonalLoop=1;jettySize=auto;html=1;entryX=1;entryY=0.75;entryDx=0;entryDy=0;endArrow=none;endFill=0;startArrow=none;" edge="1" parent="1" source="PqzKv4pI-6px_iKNPWzs-1579" target="PqzKv4pI-6px_iKNPWzs-1543">
          <mxGeometry relative="1" as="geometry">
            <Array as="points">
              <mxPoint x="1260" y="205" />
            </Array>
          </mxGeometry>
        </mxCell>
        <mxCell id="PqzKv4pI-6px_iKNPWzs-1575" value="Kennel" style="rounded=1;whiteSpace=wrap;html=1;fillColor=#d5e8d4;strokeColor=#82b366;" vertex="1" parent="1">
          <mxGeometry x="1200" y="320" width="120" height="60" as="geometry" />
        </mxCell>
        <mxCell id="PqzKv4pI-6px_iKNPWzs-1577" style="edgeStyle=orthogonalEdgeStyle;rounded=0;orthogonalLoop=1;jettySize=auto;html=1;exitX=0.5;exitY=0;exitDx=0;exitDy=0;entryX=1;entryY=0.75;entryDx=0;entryDy=0;endArrow=none;endFill=0;startArrow=none;" edge="1" parent="1" source="PqzKv4pI-6px_iKNPWzs-1580" target="PqzKv4pI-6px_iKNPWzs-1543">
          <mxGeometry relative="1" as="geometry" />
        </mxCell>
        <mxCell id="PqzKv4pI-6px_iKNPWzs-1576" value="Kennel" style="rounded=1;whiteSpace=wrap;html=1;fillColor=#d5e8d4;strokeColor=#82b366;" vertex="1" parent="1">
          <mxGeometry x="1020" y="320" width="120" height="60" as="geometry" />
        </mxCell>
        <mxCell id="PqzKv4pI-6px_iKNPWzs-1580" value="" style="rhombus;whiteSpace=wrap;html=1;" vertex="1" parent="1">
          <mxGeometry x="1055" y="240" width="50" height="50" as="geometry" />
        </mxCell>
        <mxCell id="PqzKv4pI-6px_iKNPWzs-1581" value="" style="edgeStyle=orthogonalEdgeStyle;rounded=0;orthogonalLoop=1;jettySize=auto;html=1;exitX=0.5;exitY=0;exitDx=0;exitDy=0;entryX=0.5;entryY=1;entryDx=0;entryDy=0;endArrow=none;endFill=0;" edge="1" parent="1" source="PqzKv4pI-6px_iKNPWzs-1576" target="PqzKv4pI-6px_iKNPWzs-1580">
          <mxGeometry relative="1" as="geometry">
            <mxPoint x="1080" y="320" as="sourcePoint" />
            <mxPoint x="960" y="205" as="targetPoint" />
          </mxGeometry>
        </mxCell>
        <mxCell id="PqzKv4pI-6px_iKNPWzs-1583" style="edgeStyle=orthogonalEdgeStyle;rounded=0;orthogonalLoop=1;jettySize=auto;html=1;exitX=0.5;exitY=1;exitDx=0;exitDy=0;entryX=0.5;entryY=0;entryDx=0;entryDy=0;endArrow=none;endFill=0;" edge="1" parent="1" source="PqzKv4pI-6px_iKNPWzs-1579" target="PqzKv4pI-6px_iKNPWzs-1575">
          <mxGeometry relative="1" as="geometry" />
        </mxCell>
        <mxCell id="PqzKv4pI-6px_iKNPWzs-1579" value="" style="rhombus;whiteSpace=wrap;html=1;" vertex="1" parent="1">
          <mxGeometry x="1235" y="240" width="50" height="50" as="geometry" />
        </mxCell>
        <mxCell id="PqzKv4pI-6px_iKNPWzs-1584" value="1" style="text;html=1;align=center;verticalAlign=middle;resizable=0;points=[];autosize=1;strokeColor=none;fillColor=none;" vertex="1" parent="1">
          <mxGeometry x="1075" y="225" width="30" height="30" as="geometry" />
        </mxCell>
        <mxCell id="PqzKv4pI-6px_iKNPWzs-1585" value="M" style="text;html=1;align=center;verticalAlign=middle;resizable=0;points=[];autosize=1;strokeColor=none;fillColor=none;" vertex="1" parent="1">
          <mxGeometry x="1075" y="280" width="30" height="30" as="geometry" />
        </mxCell>
        <mxCell id="PqzKv4pI-6px_iKNPWzs-1586" value="M" style="text;html=1;align=center;verticalAlign=middle;resizable=0;points=[];autosize=1;strokeColor=none;fillColor=none;" vertex="1" parent="1">
          <mxGeometry x="1255" y="280" width="30" height="30" as="geometry" />
        </mxCell>
        <mxCell id="PqzKv4pI-6px_iKNPWzs-1587" value="Text" style="text;html=1;align=center;verticalAlign=middle;resizable=0;points=[];autosize=1;strokeColor=none;fillColor=none;" vertex="1" parent="1">
          <mxGeometry x="1245" y="225" width="50" height="30" as="geometry" />
        </mxCell>
      </root>
    </mxGraphModel>
  </diagram>
</mxfile>
